# AST/ASF file generated using VICON BodyLanguage
# -----------------------------------------------
:version 1.10
:name VICON
:units
  mass 1.0
  length 0.45
  angle deg
:documentation
   .ast/.asf automatically generated from VICON data using
   VICON BodyBuilder and BodyLanguage model FoxedUp or BRILLIANT.MOD
:root
   order TX TY TZ RX RY RZ
   axis XYZ
   position 0 0 0  
   orientation 0 0 0 
:bonedata
  begin
     id 1 
     name lhipjoint
     direction 0.575328 -0.747301 0.332475 
     length 2.40933 
     axis 0 0 0  XYZ
  end
  begin
     id 2 
     name lfemur
     direction 0.34202 -0.939693 0  
     length 7.31453  
     axis 0 0 20  XYZ
    dof rx ry rz
    limits (-160.0 20.0)
           (-70.0 70.0)
           (-60.0 70.0)
  end
  begin
     id 3 
     name ltibia
     direction 0.34202 -0.939693 0   
     length 7.82185   
     axis 0 0 20   XYZ
    dof rx
    limits (-10.0 170.0)
  end
  begin
     id 4 
     name lfoot
     direction 0.0795993 -0.218697 0.972541   
     length 2.19173   
     axis -90 7.62852e-016 20   XYZ
    dof rx rz
    limits (-45.0 90.0)
           (-70.0 20.0)
  end
  begin
     id 5 
     name ltoes
     direction 1.53537e-011 -4.21894e-011 1   
     length 1.10023   
     axis -90 7.62852e-016 20   XYZ
    dof rx
    limits (-90.0 20.0)
  end
  begin
     id 6 
     name rhipjoint
     direction -0.513884 -0.783789 0.348708   
     length 2.29716  
     axis 0 0 0  XYZ 
  end
  begin
     id 7 
     name rfemur
     direction -0.34202 -0.939693 0   
     length 7.59573   
     axis 0 0 -20   XYZ
    dof rx ry rz
    limits (-160.0 20.0)
           (-70.0 70.0)
           (-70.0 60.0)
  end
  begin
     id 8 
     name rtibia
     direction -0.34202 -0.939693 0   
     length 7.66402   
     axis 0 0 -20   XYZ
    dof rx
    limits (-10.0 170.0)
 end
 begin
     id 9 
     name rfoot
     direction -0.137793 -0.378584 0.915253   
     length 2.27056  
     axis -90 -7.62852e-016 -20   XYZ
    dof rx rz
    limits (-45.0 90.0)
           (-20.0 70.0)
  end
  begin
     id 10 
     name rtoes
     direction -1.53493e-011 -4.22159e-011 1   
     length 1.11766   
     axis -90 -7.62852e-016 -20   XYZ
    dof rx
    limits (-90.0 20.0)
  end
  begin
     id 11 
     name lowerback
     direction -0.00732775 0.998356 -0.05685   
     length 2.16513   
     axis 0 0 0   XYZ
    dof rx ry rz
    limits (-20.0 45.0)
           (-30.0 30.0)
           (-30.0 30.0)
  end
  begin
     id 12 
     name upperback
     direction 0.0218081 0.999627 -0.0164647   
     length 2.16755   
     axis 0 0 0   XYZ
    dof rx ry rz
    limits (-20.0 45.0)
           (-30.0 30.0)
           (-30.0 30.0)
  end
  begin
     id 13 
     name thorax
     direction 0.02365 0.999661 0.0108914   
     length 2.16932   
     axis 0 0 0   XYZ
    dof rx ry rz
    limits (-20.0 45.0)
           (-30.0 30.0)
           (-30.0 30.0)
  end
  begin
     id 14 
     name lowerneck
     direction -0.0523929 0.978385 0.200044   
     length 1.63877   
     axis 0 0 0   XYZ
    dof rx ry rz
    limits (-20.0 45.0)
           (-30.0 30.0)
           (-30.0 30.0)
  end
  begin
     id 15 
     name upperneck
     direction 0.0448674 0.981321 -0.187074   
     length 1.69014   
     axis 0 0 0   XYZ
    dof rx ry rz
    limits (-20.0 45.0)
           (-30.0 30.0)
           (-30.0 30.0)
  end
  begin
     id 16
     name head
     direction 0.0199089 0.996118 -0.0857429  
     length 1.70094  
     axis 0 0 0   XYZ
    dof rx ry rz
    limits (-20.0 45.0)
           (-30.0 30.0)
           (-30.0 30.0)
  end
  begin
     id 17 
     name lclavicle
     direction 0.940366 0.30191 -0.156722  
     length 3.37521  
     axis 0 0 0   XYZ
    dof ry rz
    limits (-20.0 10.0)
           (0.0 20.0)
  end
  begin
     id 18 
     name lhumerus
     direction 1 -4.4897e-011 -1.7911e-027   
     length 5.25287   
     axis 180 -30 -90   XYZ
    dof rx ry rz
    limits (-60.0 90.0)
           (-90.0 90.0)
           (-90.0 90.0)
  end
  begin
     id 19
     name lradius
     direction 1 -4.48951e-011 1.04424e-027   
     length 3.51014   
     axis 180 -30 -90   XYZ
    dof rx
    limits (-10.0 170.0)
  end
  begin
     id 20
     name lwrist
     direction 1 -4.48997e-011 -9.5942e-028   
     length 1.75507   
     axis 8.48502e-016 90 90   XYZ
    dof ry
    limits (-180.0 0.0)
 end
  begin
     id 21 
     name lhand
     direction 1 -4.48831e-011 -1.90777e-027   
     length 0.706179   
     axis 1.22306e-015 90 90   XYZ
    dof rx rz
    limits (-90.0 90.0)
           (-45.0 45.0)
  end
  begin
     id 22 
     name lfingers
     direction 1 -4.49108e-011 -3.85244e-027   
     length 0.569339   
     axis 2.44611e-015 90 90   XYZ
    dof rx
    limits (0.0 90.0)
  end
  begin
     id 23
     name lthumb
     direction 0.707107 -6.34953e-011 0.707107   
     length 0.817461   
     axis -90 45 -1.62303e-014   XYZ
    dof rx rz
    limits (-45.0 45.0)
           (-45.0 45.0)
  end
  begin
     id 24 
     name rclavicle
     direction -0.905329 0.382405 -0.184787   
     length 3.30787  
     axis 0 0 0   XYZ 
    dof ry rz
    limits (-10.0 20.0)
           (-20.0 0.0)
  end
  begin
     id 25 
     name rhumerus
     direction -1 -4.48953e-011 -9.15316e-029  
     length 5.28721   
     axis 180 30 90   XYZ
    dof rx ry rz
    limits (-90.0 60.0)
           (-90.0 90.0)
           (-90.0 90.0)
  end
  begin
     id 26 
     name rradius
     direction -1 -4.48987e-011 9.37824e-028   
     length 3.50544   
     axis 180 30 90   XYZ
    dof rx
    limits (-10.0 170.0)
  end
  begin
     id 27 
     name rwrist
     direction -1 -4.48967e-011 -9.58414e-028   
     length 1.75272   
     axis 8.48502e-016 -90 -90   XYZ
    dof ry
    limits (-180.0 0.0)
  end
  begin
     id 28
     name rhand
     direction -1 -4.48904e-011 -1.91266e-027   
     length 0.884996   
     axis 1.22306e-015 -90 -90   XYZ
    dof rx rz
    limits (-90.0 90.0)
           (-45.0 45.0)
  end
  begin
     id 29
     name rfingers
     direction -1 -4.4909e-011 -3.85015e-027   
     length 0.713507   
     axis 2.44611e-015 -90 -90   XYZ
    dof rx
    limits (0.0 90.0)
  end
  begin
     id 30
     name rthumb
     direction -0.707107 -6.34853e-011 0.707107   
     length 1.02446   
     axis -90 -45 1.62303e-014   XYZ
    dof rx rz
    limits (-45.0 45.0)
           (-45.0 45.0)
  end
:hierarchy
  begin
    root lhipjoint rhipjoint lowerback
    lhipjoint lfemur
    lfemur ltibia
    ltibia lfoot
    lfoot ltoes
    rhipjoint rfemur
    rfemur rtibia
    rtibia rfoot
    rfoot rtoes
    lowerback upperback
    upperback thorax
    thorax lowerneck lclavicle rclavicle
    lowerneck upperneck
    upperneck head
    lclavicle lhumerus
    lhumerus lradius
    lradius lwrist
    lwrist lhand lthumb
    lhand lfingers
    rclavicle rhumerus
    rhumerus rradius
    rradius rwrist
    rwrist rhand rthumb
    rhand rfingers
  end

#!OML:ASF F:\twosubjects\two\Thursday\Session 1\justin.ASF
:FULLY-SPECIFIED
:DEGREES
32
root 7.94582 17.3242 -19.4057 2.69364 -74.7596 2.9542
lowerback -4.21762 0.85913 -2.49016
upperback -0.691358 1.19958 2.31931
thorax 1.5522 0.575937 3.85385
lowerneck -17.9707 6.38565 -2.17478
upperneck 23.8369 9.39312 0.383352
head 10.4835 4.08028 1.80186
rclavicle 4.99446e-015 7.15625e-015
rhumerus -30.1585 -17.6491 -78.1099
rradius 27.1541
rwrist -1.86762
rhand -13.4665 11.4959
rfingers 7.12502
rthumb 12.6434 -18.1015
lclavicle 4.99446e-015 7.15625e-015
lhumerus -29.4362 4.03593 89.0986
lradius 26.082
lwrist -15.47
lhand 1.05723 40.0731
lfingers 7.12502
lthumb 26.6026 68.2245
rfemur -12.7055 0.416163 19.0329
rtibia 36.7033
rfoot -26.975 -10.5591
rtoes -8.36971
lfemur -10.7503 2.94721 -17.1072
ltibia 28.2949
lfoot -19.0377 2.10277
ltoes -14.2411
33
root 7.94493 17.3191 -19.4037 2.5175 -74.6589 3.15908
lowerback -4.21104 0.806973 -2.50674
upperback -0.70993 1.13007 2.34094
thorax 1.53453 0.541526 3.88172
lowerneck -18.125 6.43613 -2.29221
upperneck 23.9733 9.4643 0.552484
head 10.5448 4.11749 1.89961
rclavicle -2.74074e-014 1.35174e-014
rhumerus -30.2031 -17.418 -78.0797
rradius 27.1658
rwrist -1.85229
rhand -13.5434 11.8162
rfingers 7.12502
rthumb 12.5693 -17.7857
lclavicle -2.74074e-014 1.35174e-014
lhumerus -29.511 4.16402 89.1291
lradius 26.2146
lwrist -15.5138
lhand 1.07817 40.3902
lfingers 7.12502
lthumb 26.6227 68.5384
rfemur -12.7475 0.168619 18.9667
rtibia 36.7085
rfoot -26.923 -10.5481
rtoes -8.88677
lfemur -10.8303 2.87508 -17.1943
ltibia 28.3779
lfoot -18.9122 2.26086
ltoes -15.0928
34
root 7.94735 17.315 -19.406 3.27097 -74.5996 2.45169
lowerback -4.22406 0.836106 -2.25565
upperback -0.743752 1.15653 2.36115
thorax 1.50941 0.556362 3.76173
lowerneck -18.0872 6.45283 -2.30328
upperneck 23.9643 9.47461 0.607767
head 10.53 4.12926 1.9201
rclavicle -5.44173e-015 -9.54166e-015
rhumerus -30.2981 -17.4152 -78.0574
rradius 27.2997
rwrist -1.95339
rhand -13.512 11.7144
rfingers 7.12502
rthumb 12.5996 -17.8856
lclavicle -5.44173e-015 -9.54166e-015
lhumerus -29.4984 3.83813 89.1968
lradius 26.2166
lwrist -15.2222
lhand 0.974802 40.3117
lfingers 7.12502
lthumb 26.5237 68.475
rfemur -12.8269 0.173027 19.1797
rtibia 36.682
rfoot -26.8753 -10.5683
rtoes -8.59803
lfemur -10.9741 2.91952 -16.9942
ltibia 28.4676
lfoot -18.781 2.33351
ltoes -15.6163
35
root 7.95173 17.3177 -19.4159 4.01339 -74.4947 1.74299
lowerback -4.21347 0.836605 -2.09201
upperback -0.700952 1.14897 2.37777
thorax 1.55109 0.551963 3.68634
lowerneck -17.9534 6.47622 -2.09347
upperneck 23.6273 9.50826 0.321936
head 10.4099 4.14172 1.77644
rclavicle 2.62396e-014 1.51076e-014
rhumerus -30.1727 -17.3368 -78.2137
rradius 27.409
rwrist -2.05663
rhand -13.5933 11.2267
rfingers 7.12502
rthumb 12.5212 -18.3782
lclavicle 2.62396e-014 1.51076e-014
lhumerus -29.3402 3.6391 89.181
lradius 26.2463
lwrist -15.0426
lhand 0.968382 40.1357
lfingers 7.12502
lthumb 26.5176 68.2998
rfemur -12.8914 0.149021 19.4306
rtibia 36.6577
rfoot -26.8048 -10.6462
rtoes -8.17555
lfemur -11.1241 3.00973 -16.7119
ltibia 28.5649
lfoot -18.9991 1.97519
ltoes -15.5569
36
root 7.9455 17.3153 -19.4109 3.89411 -74.5673 1.67503
lowerback -4.12066 0.857971 -1.99675
upperback -0.547039 1.17352 2.33294
thorax 1.65843 0.561765 3.58744
lowerneck -18.0132 6.54939 -1.84917
upperneck 23.4467 9.59155 0.119116
head 10.3796 4.18271 1.67644
rclavicle -2.99916e-014 5.56597e-015
rhumerus -30.0398 -17.1935 -78.4282
rradius 27.4534
rwrist -2.10041
rhand -13.7338 11.0305
rfingers 7.12502
rthumb 12.3858 -18.5826
lclavicle -2.99916e-014 5.56597e-015
lhumerus -29.1551 3.50278 89.1396
lradius 26.2504
lwrist -14.8654
lhand 0.933718 40.2459
lfingers 7.12502
lthumb 26.4844 68.415
rfemur -12.6808 0.0137124 19.4221
rtibia 36.6402
rfoot -26.7249 -10.673
rtoes -8.89895
lfemur -10.9028 2.81368 -16.7025
ltibia 28.6251
lfoot -19.2324 1.90208
ltoes -15.1028
37
root 7.94522 17.3109 -19.4115 3.67006 -74.5247 1.82284
lowerback -3.92175 0.865135 -2.06995
upperback -0.572463 1.18503 2.32618
thorax 1.51865 0.569949 3.61782
lowerneck -17.8449 6.55268 -1.67277
upperneck 23.2717 9.57451 -0.0362166
head 10.3034 4.17937 1.58063
rclavicle -4.7112e-014 -6.36111e-015
rhumerus -30.2198 -17.2126 -78.3949
rradius 27.4949
rwrist -2.25687
rhand -13.6582 11.3253
rfingers 7.12502
rthumb 12.4587 -18.2833
lclavicle -4.7112e-014 -6.36111e-015
lhumerus -29.1506 3.28687 89.185
lradius 26.1373
lwrist -14.6661
lhand 1.01536 40.3147
lfingers 7.12502
lthumb 26.5625 68.472
rfemur -12.5869 0.0777647 19.3915
rtibia 36.6545
rfoot -26.7722 -10.7544
rtoes -9.22098
lfemur -10.8293 2.88294 -16.7477
ltibia 28.6332
lfoot -19.2988 1.81966
ltoes -15.3762
38
root 7.94402 17.31 -19.4116 3.26773 -74.5526 2.20971
lowerback -3.7855 0.900265 -2.19606
upperback -0.621571 1.2369 2.29653
thorax 1.38577 0.598434 3.65727
lowerneck -17.1302 6.47074 -1.39348
upperneck 22.5167 9.48439 -0.627547
head 9.94915 4.12412 1.27164
rclavicle 7.64079e-014 -3.18055e-015
rhumerus -30.3849 -17.2416 -78.3476
rradius 27.5096
rwrist -2.397
rhand -13.6677 11.6779
rfingers 7.12502
rthumb 12.4495 -17.9313
lclavicle 7.64079e-014 -3.18055e-015
lhumerus -29.2247 3.27682 89.1748
lradius 26.0602
lwrist -14.7151
lhand 1.28187 40.162
lfingers 7.12502
lthumb 26.8176 68.2805
rfemur -12.5791 0.214331 19.272
rtibia 36.7061
rfoot -26.8834 -10.6553
rtoes -8.90213
lfemur -10.7601 2.79851 -16.8811
ltibia 28.5834
lfoot -19.2733 2.04648
ltoes -15.777
39
root 7.94245 17.3085 -19.4115 2.58005 -74.5765 2.92215
lowerback -3.7615 0.938416 -2.32354
upperback -0.608294 1.29589 2.18229
thorax 1.38111 0.628087 3.61336
lowerneck -16.3414 6.36222 -1.04472
upperneck 21.5321 9.3501 -1.31457
head 9.51267 4.05333 0.911177
rclavicle -2.5842e-015 6.36111e-015
rhumerus -30.386 -17.3117 -78.4348
rradius 27.492
rwrist -2.30174
rhand -13.8902 11.7683
rfingers 7.12502
rthumb 12.235 -17.8538
lclavicle -2.5842e-015 6.36111e-015
lhumerus -29.3091 3.29752 89.1072
lradius 26.212
lwrist -14.7366
lhand 1.12169 40.1731
lfingers 7.12502
lthumb 26.6643 68.315
rfemur -12.6201 0.066771 19.0506
rtibia 36.7908
rfoot -26.9461 -10.4872
rtoes -8.77015
lfemur -10.7046 2.69526 -17.0959
ltibia 28.5038
lfoot -19.2938 2.02854
ltoes -15.1592
40
root 7.94003 17.3037 -19.4114 1.7537 -74.5813 3.76267
lowerback -3.78055 0.966347 -2.49071
upperback -0.562459 1.3428 2.09823
thorax 1.43332 0.649934 3.62403
lowerneck -16.1683 6.33526 -1.10373
upperneck 21.2605 9.31408 -1.31628
head 9.38271 4.04382 0.902547
rclavicle -8.82107e-015 -2.46493e-014
rhumerus -30.4045 -17.241 -78.4894
rradius 27.5519
rwrist -2.32066
rhand -14.0327 11.6767
rfingers 7.12502
rthumb 12.0976 -17.9535
lclavicle -8.82107e-015 -2.46493e-014
lhumerus -29.3985 3.40984 89.1123
lradius 26.4214
lwrist -14.7584
lhand 0.777808 40.4338
lfingers 7.12502
lthumb 26.3352 68.6254
rfemur -12.6167 0.0107925 18.7913
rtibia 36.8754
rfoot -27.0087 -10.4661
rtoes -8.32296
lfemur -10.6466 2.84415 -17.3514
ltibia 28.4371
lfoot -19.3249 1.93184
ltoes -15.3053
41
root 7.93612 17.3041 -19.4107 1.52441 -74.563 3.97147
lowerback -3.82625 0.949353 -2.56691
upperback -0.476883 1.32365 2.13207
thorax 1.54595 0.636777 3.70359
lowerneck -16.4049 6.39578 -1.33047
upperneck 21.3999 9.41648 -1.08861
head 9.4504 4.09246 1.0401
rclavicle 3.30728e-014 1.59028e-014
rhumerus -30.3608 -17.1047 -78.4948
rradius 27.6079
rwrist -2.35301
rhand -13.8609 11.6281
rfingers 7.12502
rthumb 12.2632 -17.9923
lclavicle 3.30728e-014 1.59028e-014
lhumerus -29.3901 3.78191 89.1044
lradius 26.4431
lwrist -14.9528
lhand 0.885472 40.5707
lfingers 7.12502
lthumb 26.4382 68.7468
rfemur -12.5736 0.194783 18.7257
rtibia 36.954
rfoot -27.1527 -10.5086
rtoes -7.51811
lfemur -10.5774 2.8217 -17.411
ltibia 28.4031
lfoot -19.2848 1.96675
ltoes -15.1875
42
root 7.93462 17.3073 -19.4154 1.78945 -74.4681 3.7285
lowerback -3.86841 0.948897 -2.57679
upperback -0.426449 1.324 2.14639
thorax 1.62087 0.634811 3.72578
lowerneck -16.9715 6.44372 -0.80769
upperneck 21.6023 9.40983 -1.25399
head 9.66207 4.09942 0.928276
rclavicle -1.73688e-014 4.77083e-015
rhumerus -30.3315 -17.2816 -78.5547
rradius 27.6202
rwrist -2.14813
rhand -13.6254 11.5788
rfingers 7.12502
rthumb 12.4903 -18.0279
lclavicle -1.73688e-014 4.77083e-015
lhumerus -29.3837 3.79893 89.0818
lradius 26.4541
lwrist -14.9502
lhand 0.944566 40.6506
lfingers 7.12502
lthumb 26.4948 68.8182
rfemur -12.6247 0.25243 18.822
rtibia 37.0313
rfoot -27.2615 -10.5184
rtoes -7.67397
lfemur -10.6258 2.599 -17.3079
ltibia 28.4128
lfoot -19.2317 1.97152
ltoes -14.1695
43
root 7.93316 17.3086 -19.4219 1.58966 -74.428 4.00295
lowerback -3.88414 1.02983 -2.64744
upperback -0.426963 1.43863 2.02285
thorax 1.62104 0.692464 3.6436
lowerneck -16.9985 6.40516 -0.777543
upperneck 21.6839 9.30984 -1.08548
head 9.68737 4.07294 0.970585
rclavicle -5.03671e-014 4.77083e-015
rhumerus -30.4311 -17.61 -78.7136
rradius 27.6785
rwrist -1.9169
rhand -13.8195 11.567
rfingers 7.12502
rthumb 12.3031 -18.0511
lclavicle -5.03671e-014 4.77083e-015
lhumerus -29.3817 3.26324 89.0979
lradius 26.504
lwrist -14.7163
lhand 0.856121 40.7191
lfingers 7.12502
lthumb 26.4101 68.8994
rfemur -12.7291 0.249519 18.7479
rtibia 37.1057
rfoot -27.3327 -10.4035
rtoes -7.52352
lfemur -10.7285 2.4565 -17.3588
ltibia 28.4806
lfoot -19.2262 2.04053
ltoes -13.1014
44
root 7.93139 17.3069 -19.4264 1.65113 -74.4259 4.03425
lowerback -3.94218 1.05564 -2.64311
upperback -0.404469 1.47515 1.97867
thorax 1.67497 0.709674 3.59899
lowerneck -17.1932 6.42102 -0.937823
upperneck 21.7651 9.3155 -0.805378
head 9.72766 4.09162 1.10118
rclavicle 3.51103e-014 -2.38542e-014
rhumerus -30.415 -17.7078 -78.8064
rradius 27.6773
rwrist -1.87089
rhand -13.8475 11.7654
rfingers 7.12502
rthumb 12.2761 -17.8543
lclavicle 3.51103e-014 -2.38542e-014
lhumerus -29.3136 2.97789 89.1034
lradius 26.5685
lwrist -14.5654
lhand 0.964917 40.7348
lfingers 7.12502
lthumb 26.5143 68.8994
rfemur -12.8628 0.243849 18.7494
rtibia 37.1838
rfoot -27.3666 -10.424
rtoes -7.16099
lfemur -10.8707 2.39413 -17.3497
ltibia 28.5898
lfoot -19.2659 2.11054
ltoes -12.4026
45
root 7.93152 17.3009 -19.4292 2.12438 -74.3916 3.58873
lowerback -3.90215 1.09021 -2.50892
upperback -0.412641 1.51419 1.9896
thorax 1.64414 0.730588 3.53527
lowerneck -17.2721 6.42792 -0.940879
upperneck 21.77 9.30923 -0.725952
head 9.73916 4.09742 1.13109
rclavicle 2.52953e-014 0
rhumerus -30.5449 -17.7137 -78.7814
rradius 27.7754
rwrist -2.1159
rhand -13.2503 11.8854
rfingers 7.12502
rthumb 12.8519 -17.6989
lclavicle 2.52953e-014 0
lhumerus -29.3548 2.70679 89.1153
lradius 26.6959
lwrist -14.4547
lhand 0.991091 40.7008
lfingers 7.12502
lthumb 26.5393 68.8617
rfemur -12.9919 0.0875075 18.9058
rtibia 37.2901
rfoot -27.2374 -10.6316
rtoes -8.40731
lfemur -11.0075 2.34887 -17.2264
ltibia 28.7084
lfoot -19.2904 2.248
ltoes -13.194
46
root 7.93216 17.2951 -19.4284 2.23242 -74.4369 3.45218
lowerback -3.77035 1.27972 -2.3852
upperback -0.449457 1.76179 1.88929
thorax 1.51967 0.858273 3.36912
lowerneck -17.1155 6.3258 -0.632066
upperneck 21.6497 9.11297 -0.883829
head 9.69237 4.01904 0.994195
rclavicle -3.40419e-015 -7.95139e-015
rhumerus -30.9246 -17.7673 -78.8078
rradius 28.0956
rwrist -2.47792
rhand -13.2251 11.5029
rfingers 7.12502
rthumb 12.8762 -18.0799
lclavicle -3.40419e-015 -7.95139e-015
lhumerus -29.4483 1.90865 89.2152
lradius 26.79
lwrist -14.2033
lhand 1.131 40.5224
lfingers 7.12502
lthumb 26.6732 68.663
rfemur -13.0598 0.0615001 18.9329
rtibia 37.433
rfoot -27.2046 -10.6412
rtoes -8.97485
lfemur -11.0429 2.13304 -17.2111
ltibia 28.8403
lfoot -19.3408 2.4187
ltoes -13.3645
